<svg width="77" height="89" xmlns="http://www.w3.org/2000/svg" xmlns:xlink="http://www.w3.org/1999/xlink" overflow="hidden"><g transform="translate(-375 -94)"><path d="M413.764 94.701C418.971 94.7011 423.932 95.9232 428.444 98.1332L433.617 101.385 421.721 109.953 418.488 108.707C416.877 108.297 415.209 108.083 413.5 108.083 401.54 108.082 391.561 118.617 389.253 132.622L389.191 133.38 376.415 142.581 376.049 138.375C376.049 114.255 392.934 94.701 413.764 94.701Z" fill="#003300" fill-rule="evenodd"/><path d="M442.733 110.722 445.037 113.956C449.104 120.927 451.478 129.33 451.478 138.375 451.478 162.495 434.593 182.048 413.763 182.049 400.745 182.048 389.267 174.41 382.49 162.793L379.446 156.3 390.149 148.593 390.695 150.778C394.452 161.809 403.248 169.548 413.5 169.548 427.169 169.548 438.25 155.789 438.25 138.815 438.25 132.45 436.692 126.537 434.023 121.632L431.939 118.496 442.733 110.722Z" fill="#003300" fill-rule="evenodd"/></g></svg>