<svg width="167" height="169" xmlns="http://www.w3.org/2000/svg" xmlns:xlink="http://www.w3.org/1999/xlink" overflow="hidden"><g transform="translate(-221 -89)"><path d="M371.226 124.75 372.908 126.814C381.805 140.141 387 156.207 387 173.5 387 219.616 350.059 257 304.489 257 270.312 257 240.988 235.971 228.462 206.002L226.927 200.998 247.667 190.039 250.005 198.434C258.728 221.425 279.151 237.558 302.954 237.558 334.692 237.558 360.42 208.878 360.42 173.5 360.42 160.233 356.802 147.908 350.606 137.685L349.521 136.219ZM304.489 90C321.578 90 337.453 95.2571 350.622 104.261L351.397 104.908 329.036 116.723 325.323 114.476C318.448 111.235 310.889 109.442 302.954 109.442 279.151 109.442 258.728 125.575 250.005 148.566L246.766 160.195 222 173.281 223.655 156.672C231.348 118.622 264.616 90 304.489 90Z" fill="#4F8A8B" fill-rule="evenodd"/></g></svg>